# xmcd
#
# Track frame offsets:
#	150
#	13516
#	34295
#	49922
#	67013
#	80217
#	93301
#	109163
#	124729
#	141244
#	157807
#	174798
#	187618
#	205630
#	223053
#	234438
#	248845
#	266567
#
# Disc length: 3756 seconds
#
# Revision: 0
# Processed by: cddbd v1.5.1PL2 Copyright (c) Steve Scherf et al.
# Submitted via: audiograbber 1.83.01
#
DISCID=f30eaa12
DTITLE=Various Artist - MULTI HOTT COUNTRY # 120
DYEAR=2006
DGENRE=Country
TTITLE0=Toby Keith - Get Drunk And Be Somebody
TTITLE1=Trisha Yearwood and Garth Brooks - Love Will Always Win
TTITLE2=Kenny Chesney - Living in Fast Forward
TTITLE3=Jessica Robinson - Hummingbird
TTITLE4=Martina McBride and Dolly Parton - I Still Miss Someone
TTITLE5=Corb Lund - Hair In My Eyes Llike A Highland Steer
TTITLE6=Rascal Flatts - What Hurts The Most
TTITLE7=Melainie Laine - Queen Of Hearts
TTITLE8=Gary Allan - Life Ain't Always Beautiful
TTITLE9=Dierks Bentley - Settle For A Slowdown
TTITLE10=Road Hammers - Nashville Bound (radio edit)
TTITLE11=Joe Nichols - Size Matters ( Someday )
TTITLE12=Terri Clark - Damm Right
TTITLE13=Phil Vassar - Last Day Of My Life
TTITLE14=J.R. Vautour - The New Me
TTITLE15=Steve Fox - Rewind
TTITLE16=Keith Anderson - Everytime I Hear Your Name
TTITLE17=Gretchen Wilson - Politically Incorrect
EXTD=Feburary 2006
EXTT0=
EXTT1=
EXTT2=
EXTT3=
EXTT4=
EXTT5=
EXTT6=
EXTT7=
EXTT8=
EXTT9=
EXTT10=
EXTT11=
EXTT12=
EXTT13=
EXTT14=
EXTT15=
EXTT16=
EXTT17=
PLAYORDER=
